# xmcd
#
# Track frame offsets: 
#        150
#        32764
#        63574
#        83120
#        106414
#        148216
#        176156
#        215263
#        246784
#        288350
#        328383
#
# Disc length: 4768 seconds
#
# Revision: 0
# Processed by: cddbd v1.5.2PL0 Copyright (c) Steve Scherf et al.
# Submitted via: ExactAudioCopy v1.0b1
#
DISCID=aa129e0b
DTITLE=Govt Mule - Irving Plaza [CD1)
DYEAR=2000
DGENRE=Blues Rock
TTITLE0=Wandering Child
TTITLE1=Life Before Insanity
TTITLE2=Bad Little Doggie
TTITLE3=Lay Your Burden
TTITLE4=Fallen Down
TTITLE5=World Gone Wild
TTITLE6=Tastes Like Wine
TTITLE7=I Think You Know What I Mean
TTITLE8=Far Away
TTITLE9=No Need To No Need To Suffer
TTITLE10=In My Life
EXTD=
EXTT0=
EXTT1=
EXTT2=
EXTT3=
EXTT4=
EXTT5=
EXTT6=
EXTT7=
EXTT8=
EXTT9=
EXTT10=
PLAYORDER=
